<svg xmlns="http://www.w3.org/2000/svg" width="169.445" height="56.64" viewBox="0 0 169.445 56.64">
  <g id="Download_on_the_App_Store_Badge_US-UK_RGB_blk_092917" transform="translate(0 0)">
    <g id="Group_256" data-name="Group 256" transform="translate(0 0)">
      <g id="Group_254" data-name="Group 254">
        <path id="Path_330" data-name="Path 330" d="M155.951,0H13.5c-.519,0-1.032,0-1.55,0-.434,0-.864.011-1.3.018a18.712,18.712,0,0,0-2.838.25,9.438,9.438,0,0,0-2.692.888A9.116,9.116,0,0,0,2.829,2.828a8.862,8.862,0,0,0-1.668,2.3,9.347,9.347,0,0,0-.885,2.7,18.4,18.4,0,0,0-.254,2.835c-.013.434-.015.87-.021,1.3v32.73c.007.44.008.866.021,1.305a18.4,18.4,0,0,0,.254,2.835,9.328,9.328,0,0,0,.885,2.7,8.79,8.79,0,0,0,1.668,2.286,8.885,8.885,0,0,0,2.292,1.669,9.488,9.488,0,0,0,2.692.893,19.051,19.051,0,0,0,2.838.25c.438.01.868.015,1.3.015.518,0,1.031,0,1.55,0h142.45c.509,0,1.026,0,1.535,0,.431,0,.874-.006,1.305-.015a18.8,18.8,0,0,0,2.832-.25,9.635,9.635,0,0,0,2.7-.893,8.889,8.889,0,0,0,2.29-1.669,9.055,9.055,0,0,0,1.673-2.286,9.351,9.351,0,0,0,.877-2.7,19.122,19.122,0,0,0,.263-2.835c.006-.44.006-.866.006-1.305.011-.514.011-1.026.011-1.549V13.5c0-.519,0-1.033-.011-1.546,0-.434,0-.87-.006-1.3a19.118,19.118,0,0,0-.263-2.835,9.37,9.37,0,0,0-.877-2.7,9.156,9.156,0,0,0-3.963-3.965,9.583,9.583,0,0,0-2.7-.888,18.47,18.47,0,0,0-2.832-.25c-.431-.007-.874-.015-1.305-.018-.509,0-1.026,0-1.535,0Z" transform="translate(0 0)" fill="#a6a6a6"/>
        <path id="Path_331" data-name="Path 331" d="M11.595,55.037c-.431,0-.852-.006-1.28-.015a17.966,17.966,0,0,1-2.647-.231,8.331,8.331,0,0,1-2.346-.776,7.655,7.655,0,0,1-1.978-1.44A7.534,7.534,0,0,1,1.9,50.6a8.1,8.1,0,0,1-.769-2.347A17.577,17.577,0,0,1,.894,45.6C.885,45.3.873,44.3.873,44.3V11.593s.013-.979.021-1.267a17.516,17.516,0,0,1,.234-2.651A8.15,8.15,0,0,1,1.9,5.322,7.609,7.609,0,0,1,3.335,3.343,7.881,7.881,0,0,1,5.321,1.895a8.246,8.246,0,0,1,2.341-.77A17.821,17.821,0,0,1,10.318.892L11.6.875h145.52l1.293.018a17.537,17.537,0,0,1,2.632.23,8.409,8.409,0,0,1,2.366.776,7.921,7.921,0,0,1,3.42,3.427,8.16,8.16,0,0,1,.758,2.335,18.4,18.4,0,0,1,.246,2.672c0,.4,0,.832,0,1.26.011.531.011,1.036.011,1.546V42.774c0,.514,0,1.016-.011,1.522,0,.46,0,.882-.006,1.316a18.031,18.031,0,0,1-.242,2.625,8.127,8.127,0,0,1-.765,2.365,7.76,7.76,0,0,1-1.438,1.962,7.665,7.665,0,0,1-1.982,1.448,8.3,8.3,0,0,1-2.362.779,17.76,17.76,0,0,1-2.647.231c-.415.01-.849.015-1.271.015l-1.535,0Z" transform="translate(0.363 0.364)"/>
      </g>
      <g id="_Group_" data-name="&lt;Group&gt;" transform="translate(14.12 12.348)">
        <g id="_Group_2" data-name="&lt;Group&gt;">
          <g id="_Group_3" data-name="&lt;Group&gt;">
            <path id="_Path_" data-name="&lt;Path&gt;" d="M30.925,22.933a7.007,7.007,0,0,1,3.337-5.879A7.173,7.173,0,0,0,28.61,14c-2.378-.25-4.683,1.423-5.895,1.423-1.235,0-3.1-1.4-5.11-1.357a7.526,7.526,0,0,0-6.334,3.863c-2.739,4.741-.7,11.71,1.927,15.542,1.312,1.877,2.846,3.973,4.854,3.9,1.964-.081,2.7-1.252,5.068-1.252,2.349,0,3.037,1.252,5.085,1.205,2.108-.034,3.435-1.885,4.7-3.779a15.522,15.522,0,0,0,2.15-4.379,6.771,6.771,0,0,1-4.134-6.229Z" transform="translate(-9.972 -6.535)" fill="#fff"/>
            <path id="_Path_2" data-name="&lt;Path&gt;" d="M23.388,13.663A6.9,6.9,0,0,0,24.966,8.72a7.02,7.02,0,0,0-4.542,2.35A6.565,6.565,0,0,0,18.8,15.83a5.8,5.8,0,0,0,4.583-2.167Z" transform="translate(-6.303 -8.72)" fill="#fff"/>
          </g>
        </g>
        <g id="Group_255" data-name="Group 255" transform="translate(34.629 12.957)">
          <path id="Path_332" data-name="Path 332" d="M45.578,30.909h-6.7l-1.61,4.753H34.427l6.348-17.584h2.95l6.348,17.584H47.186ZM39.57,28.716h5.313L42.264,21H42.19Z" transform="translate(-34.427 -17.785)" fill="#fff"/>
          <path id="Path_333" data-name="Path 333" d="M58.707,27.893c0,3.984-2.132,6.543-5.35,6.543a4.346,4.346,0,0,1-4.034-2.243h-.061v6.35H46.631V21.483h2.547v2.132h.048a4.548,4.548,0,0,1,4.082-2.266C56.563,21.348,58.707,23.92,58.707,27.893Zm-2.7,0c0-2.6-1.341-4.3-3.388-4.3-2.011,0-3.363,1.742-3.363,4.3,0,2.583,1.352,4.313,3.363,4.313,2.047,0,3.388-1.694,3.388-4.313Z" transform="translate(-29.35 -16.425)" fill="#fff"/>
          <path id="Path_334" data-name="Path 334" d="M68.672,27.893c0,3.984-2.132,6.543-5.35,6.543a4.346,4.346,0,0,1-4.034-2.243h-.061v6.35H56.6V21.482h2.547v2.132h.048a4.548,4.548,0,0,1,4.082-2.266C66.528,21.348,68.672,23.92,68.672,27.893Zm-2.7,0c0-2.6-1.341-4.3-3.388-4.3-2.011,0-3.363,1.742-3.363,4.3,0,2.583,1.352,4.313,3.363,4.313,2.047,0,3.388-1.694,3.388-4.313Z" transform="translate(-25.205 -16.425)" fill="#fff"/>
          <path id="Path_335" data-name="Path 335" d="M72.5,30.849c.195,1.744,1.889,2.889,4.2,2.889,2.218,0,3.814-1.145,3.814-2.717,0-1.365-.962-2.182-3.241-2.742L75,27.729c-3.229-.78-4.728-2.29-4.728-4.74,0-3.034,2.644-5.118,6.4-5.118,3.716,0,6.263,2.084,6.348,5.118H80.362c-.159-1.755-1.61-2.814-3.729-2.814s-3.57,1.072-3.57,2.631c0,1.243.926,1.975,3.193,2.535l1.937.476c3.608.853,5.107,2.3,5.107,4.874,0,3.29-2.62,5.35-6.788,5.35-3.9,0-6.532-2.012-6.7-5.192Z" transform="translate(-19.709 -17.871)" fill="#fff"/>
          <path id="Path_336" data-name="Path 336" d="M84.671,19.3v3.034h2.438v2.084H84.671v7.068c0,1.1.488,1.61,1.56,1.61a8.223,8.223,0,0,0,.866-.061v2.071a7.227,7.227,0,0,1-1.462.122c-2.6,0-3.608-.975-3.608-3.461V24.418H80.163V22.334h1.864V19.3Z" transform="translate(-15.401 -17.277)" fill="#fff"/>
          <path id="Path_337" data-name="Path 337" d="M86.065,27.9c0-4.034,2.376-6.568,6.08-6.568s6.082,2.535,6.082,6.568-2.352,6.568-6.082,6.568S86.065,31.944,86.065,27.9Zm9.481,0c0-2.767-1.268-4.4-3.4-4.4s-3.4,1.646-3.4,4.4c0,2.778,1.267,4.4,3.4,4.4s3.4-1.621,3.4-4.4Z" transform="translate(-12.946 -16.432)" fill="#fff"/>
          <path id="Path_338" data-name="Path 338" d="M96.186,21.482H98.7v2.182h.061a3.058,3.058,0,0,1,3.084-2.316,4.059,4.059,0,0,1,.9.1v2.461a3.679,3.679,0,0,0-1.182-.159,2.652,2.652,0,0,0-2.742,2.95v7.6H96.186Z" transform="translate(-8.736 -16.425)" fill="#fff"/>
          <path id="Path_339" data-name="Path 339" d="M112.781,30.543c-.354,2.327-2.62,3.924-5.52,3.924-3.729,0-6.044-2.5-6.044-6.507s2.327-6.629,5.934-6.629c3.547,0,5.777,2.437,5.777,6.324v.9h-9.055v.159a3.339,3.339,0,0,0,3.449,3.631,2.9,2.9,0,0,0,2.961-1.8Zm-8.9-3.826H110.3a3.083,3.083,0,0,0-3.144-3.254,3.245,3.245,0,0,0-3.265,3.254Z" transform="translate(-6.643 -16.432)" fill="#fff"/>
        </g>
      </g>
    </g>
    <g id="_Group_4" data-name="&lt;Group&gt;" transform="translate(50.51 11.947)">
      <g id="Group_257" data-name="Group 257">
        <path id="Path_340" data-name="Path 340" d="M38.723,8.734a3.738,3.738,0,0,1,3.976,4.2c0,2.7-1.459,4.251-3.976,4.251H35.671V8.734Zm-1.74,7.254h1.593a2.656,2.656,0,0,0,2.786-3.039,2.664,2.664,0,0,0-2.786-3.021H36.983Z" transform="translate(-35.671 -8.318)" fill="#fff"/>
        <path id="Path_341" data-name="Path 341" d="M41.685,13.416a3.021,3.021,0,1,1,6.014,0,3.021,3.021,0,1,1-6.014,0Zm4.72,0c0-1.382-.621-2.19-1.711-2.19s-1.709.808-1.709,2.19.615,2.2,1.709,2.2S46.4,14.8,46.4,13.416Z" transform="translate(-33.175 -7.742)" fill="#fff"/>
        <path id="Path_342" data-name="Path 342" d="M53.655,16.571H52.35l-1.318-4.7h-.1l-1.312,4.7H48.327l-1.758-6.376h1.276l1.142,4.865h.094l1.311-4.865H51.6l1.311,4.865h.1l1.137-4.865h1.258Z" transform="translate(-31.137 -7.706)" fill="#fff"/>
        <path id="Path_343" data-name="Path 343" d="M53.854,10.233h1.211v1.013h.094a1.909,1.909,0,0,1,1.9-1.136,2.074,2.074,0,0,1,2.207,2.372v4.128H58.01V12.8c0-1.025-.445-1.534-1.376-1.534a1.463,1.463,0,0,0-1.522,1.616v3.73H53.854Z" transform="translate(-28.107 -7.744)" fill="#fff"/>
        <path id="Path_344" data-name="Path 344" d="M59.094,8.437h1.258V17.3H59.094Z" transform="translate(-25.927 -8.437)" fill="#fff"/>
        <path id="Path_345" data-name="Path 345" d="M61.222,13.416a3.021,3.021,0,1,1,6.015,0,3.021,3.021,0,1,1-6.015,0Zm4.72,0c0-1.382-.621-2.19-1.711-2.19s-1.709.808-1.709,2.19.615,2.2,1.709,2.2S65.941,14.8,65.941,13.416Z" transform="translate(-25.048 -7.742)" fill="#fff"/>
        <path id="Path_346" data-name="Path 346" d="M66.4,14.8c0-1.148.855-1.809,2.372-1.9l1.727-.1v-.55c0-.673-.445-1.054-1.305-1.054-.7,0-1.189.258-1.329.709H66.647c.129-1.1,1.159-1.8,2.605-1.8,1.6,0,2.5.8,2.5,2.143v4.357H70.541v-.9h-.1a2.145,2.145,0,0,1-1.915,1A1.926,1.926,0,0,1,66.4,14.8Zm4.1-.545v-.533l-1.557.1c-.878.059-1.276.357-1.276.92s.5.908,1.182.908A1.5,1.5,0,0,0,70.5,14.259Z" transform="translate(-22.887 -7.742)" fill="#fff"/>
        <path id="Path_347" data-name="Path 347" d="M71.348,14.111c0-2.015,1.036-3.291,2.647-3.291a2.1,2.1,0,0,1,1.955,1.119h.094v-3.5H77.3V17.3H76.1V16.295H76a2.213,2.213,0,0,1-2,1.112C72.373,17.407,71.348,16.131,71.348,14.111Zm1.3,0c0,1.352.637,2.166,1.7,2.166s1.716-.826,1.716-2.161-.662-2.166-1.716-2.166-1.7.819-1.7,2.161Z" transform="translate(-20.829 -8.437)" fill="#fff"/>
        <path id="Path_348" data-name="Path 348" d="M79.234,13.416a3.021,3.021,0,1,1,6.014,0,3.021,3.021,0,1,1-6.014,0Zm4.72,0c0-1.382-.621-2.19-1.711-2.19s-1.709.808-1.709,2.19.615,2.2,1.709,2.2S83.954,14.8,83.954,13.416Z" transform="translate(-17.555 -7.742)" fill="#fff"/>
        <path id="Path_349" data-name="Path 349" d="M84.669,10.233h1.211v1.013h.094a1.909,1.909,0,0,1,1.9-1.136,2.074,2.074,0,0,1,2.207,2.372v4.128H88.826V12.8c0-1.025-.445-1.534-1.376-1.534a1.463,1.463,0,0,0-1.522,1.616v3.73H84.669Z" transform="translate(-15.288 -7.744)" fill="#fff"/>
        <path id="Path_350" data-name="Path 350" d="M94.183,9.074V10.69h1.381v1.06H94.183v3.279c0,.668.275.96.9.96a4.2,4.2,0,0,0,.48-.029v1.048a4.129,4.129,0,0,1-.685.064c-1.4,0-1.957-.492-1.957-1.722v-3.6H91.911V10.69h1.012V9.074Z" transform="translate(-12.275 -8.172)" fill="#fff"/>
        <path id="Path_351" data-name="Path 351" d="M95.7,8.437h1.247v3.514h.1A1.962,1.962,0,0,1,99,10.809a2.1,2.1,0,0,1,2.2,2.377V17.3h-1.26V13.5c0-1.018-.474-1.534-1.363-1.534a1.49,1.49,0,0,0-1.605,1.617V17.3H95.7Z" transform="translate(-10.697 -8.437)" fill="#fff"/>
        <path id="Path_352" data-name="Path 352" d="M106.446,14.885a2.588,2.588,0,0,1-2.763,1.845,2.9,2.9,0,0,1-2.945-3.291,2.941,2.941,0,0,1,2.94-3.331c1.774,0,2.844,1.212,2.844,3.214v.439h-4.5v.071a1.685,1.685,0,0,0,1.7,1.827,1.528,1.528,0,0,0,1.517-.773Zm-4.426-2.055h3.221a1.538,1.538,0,0,0-1.569-1.652,1.631,1.631,0,0,0-1.651,1.652Z" transform="translate(-8.614 -7.742)" fill="#fff"/>
      </g>
    </g>
  </g>
</svg>
