<svg xmlns="http://www.w3.org/2000/svg" width="173.412" height="256.775" viewBox="0 0 173.412 256.775">
  <g id="Group_298" data-name="Group 298" transform="translate(-119.232 -549.076)">
    <path id="Path_156" data-name="Path 156" d="M-2742.7,2405.1l32.9,7.582-6.4,52.113s-3.613,11.248-10.32,13.931-15.169,4.85-15.891,7.017-11.145,40.658-11.145,40.658l-4.231,16.821s-1.857,4.334,5.573,6.5,6.6,5.057,6.6,5.057v2.167l-32.919-7.636s-.516-4.747,3.612-4.437,10.526,1.238,10.526,1.238,2.27-1.445,3.509-6.4,11.97-48.6,11.97-48.6,2.477-7.842-4.953-14.344-12.8-12.9-4.85-31.681,15.479-40.762,15.479-40.762Z" transform="translate(2899.493 -1767.959)" fill="#e3f6fd"/>
    <path id="Path_157" data-name="Path 157" d="M37.954.25,71.379,8.277,64.06,58.731s-4.143,12.422-10.85,15.1S36.32,80.374,35.6,82.541s-10.6,37.722-10.6,37.722l-4.231,16.82s-2.432,5.125,5,7.292,5.944,4.1,5.944,4.1l1.236,2.332L.021,143.172s-.516-4.747,3.612-4.437,10.526,1.238,10.526,1.238,2.27-1.445,3.509-6.4,11.971-48.6,11.971-48.6,3.415-7.655-4.015-14.156-12.617-12.6-4.67-31.378S37.5,0,37.5,0Z" transform="matrix(0.875, -0.485, 0.485, 0.875, 157.101, 673.95)" fill="#e3f6fd"/>
    <path id="Path_1" data-name="Path 1" d="M209.139,162.414l29.008,7.252-4.029,31.425-1.612,5.64-2.961,5.826-15.572,7.066-4.029.806-3.223-2.417-10.475-12.087V193.839l11.281-30.619Z" transform="translate(-54.483 492.331)" fill="#fbc961"/>
    <path id="Path_2" data-name="Path 2" d="M250.8,179.115l29.02-7.2,11.184,29.643,1.223,5.737.119,6.534-10.438,13.545-3.18,2.6-3.98-.623-14.921-5.76-5.67-10.674-4.4-32.333Z" transform="translate(-53.706 492.469)" fill="#fbc961"/>
    <path id="Path_3" data-name="Path 3" d="M207.132,290.993a27.282,27.282,0,0,0-5.88-2.389c-3.94-1.246-4.534-2.026-3.566-5.995q4.276-17.529,8.663-35.031c1.369-5.506,2.766-11,4.152-16.505a10.094,10.094,0,0,1,5.951-7.087c1.946-.863,3.943-1.613,5.924-2.4a48.241,48.241,0,0,0,6.045-2.41c6.592-3.72,9.937-9.781,11.047-16.989,1.429-9.275,2.427-18.616,3.613-27.93.248-1.942.509-3.884.764-5.824l.257.025.432,3.418c1.417,11.218,2.8,22.44,4.273,33.65a67.919,67.919,0,0,0,1.843,10.562c2.259,7.577,6.981,12.975,14.842,15.25,2,.579,3.921,1.439,5.878,2.172a11.822,11.822,0,0,1,7.712,8.973c3.4,14.054,6.949,28.071,10.435,42.1.741,2.98,1.511,5.953,2.163,8.953.659,3.029.04,4.029-2.885,4.967-1.217.391-2.479.653-3.682,1.08a9.463,9.463,0,0,0-4.967,3.432,6.085,6.085,0,0,0-.748,4.907h2.187l33.431-8.325a5.66,5.66,0,0,0-4.374-4.913,14.359,14.359,0,0,0-7.335.259c-4.224.985-5.059.543-6.1-3.6-4.208-16.8-8.355-33.611-12.565-50.408a11.008,11.008,0,0,1,2.274-10.426q2.993-3.5,6.136-6.876a18.5,18.5,0,0,0,4.632-8.566,25.856,25.856,0,0,0-1.354-15.2q-6.8-17.949-13.582-35.9c-1.324-3.5-2.658-7-4.028-10.6l-34.059,8.46,1.218-9.843-35.367-8.8c-.212.513-.4.935-.563,1.367C205.09,157.4,200.189,170.231,195.4,183.1a85.124,85.124,0,0,0-4.043,12.5,19.553,19.553,0,0,0,5.561,18.678c1.959,1.955,3.728,4.106,5.506,6.233a10.878,10.878,0,0,1,2.127,10.213c-3.79,15.1-7.512,30.215-11.275,45.321-.587,2.358-1.177,4.72-1.916,7.031-.582,1.818-1.407,2.276-3.305,2.069-1.1-.12-2.176-.413-3.263-.631a11.86,11.86,0,0,0-6.813.19,5.957,5.957,0,0,0-3.937,4.676l35.456,8.819A5.5,5.5,0,0,0,207.132,290.993Zm70.479-135.536c.907,2.374,1.791,4.672,2.662,6.975q7.27,19.2,14.53,38.409a24.248,24.248,0,0,1,1.424,12.572,17.079,17.079,0,0,1-4.576,9.121c-2.066,2.215-4.093,4.469-6.052,6.778a12.731,12.731,0,0,0-2.68,11.978c4.214,16.839,8.362,33.7,12.6,50.529,1.291,5.135,2.961,6.006,8.18,4.89a25.937,25.937,0,0,1,5.185-.539,4.772,4.772,0,0,1,3.964,2.158l-31.825,7.918a3.627,3.627,0,0,1,1.816-3.447,31.053,31.053,0,0,1,4.391-2c1.185-.47,2.456-.725,3.632-1.212a4.094,4.094,0,0,0,2.747-4.565,48.179,48.179,0,0,0-1.082-5.643c-3.9-15.774-7.893-31.526-11.721-47.317-1.208-4.987-3.975-8.39-8.751-10.186-2.075-.78-4.121-1.66-6.242-2.288-6.235-1.849-10.251-6-12.756-11.855-1.435-3.351-1.828-6.9-2.276-10.461q-2.378-18.919-4.784-37.836c-.245-1.937-.464-3.877-.709-5.935Zm-101.19,132.7a4.685,4.685,0,0,1,4.216-2.214,23.549,23.549,0,0,1,4.93.585c5.067,1.126,6.836.176,8.095-4.839,4.234-16.879,8.394-33.774,12.613-50.656a12.508,12.508,0,0,0-2.485-11.657,69.52,69.52,0,0,0-5.148-5.864c-6-5.759-7.233-12.728-4.983-20.348,1.553-5.262,3.718-10.347,5.656-15.494q5.839-15.505,11.729-30.991c.164-.434.341-.864.555-1.406l32.331,8.044c-.306,2.5-.6,4.941-.906,7.379-1.583,12.53-3.216,25.055-4.729,37.594-.559,4.634-1.566,9.073-4.129,13.048a18.349,18.349,0,0,1-9.984,7.784c-2.55.835-5.056,1.814-7.551,2.805a12.824,12.824,0,0,0-8.1,9.52c-2.4,9.948-4.931,19.867-7.4,29.8-1.668,6.7-3.343,13.407-4.979,20.118a21.387,21.387,0,0,0-.59,3.656,4.032,4.032,0,0,0,2.495,4.229c1.161.519,2.422.809,3.606,1.28a38.869,38.869,0,0,1,4.653,2.036,4.021,4.021,0,0,1,1.956,3.509Z" transform="translate(-54.805 492.052)"/>
    <path id="Path_5" data-name="Path 5" d="M253.033,145.795c.022.418.111,1.228.089,2.034a2.855,2.855,0,0,1-.4.94c-.231-.289-.679-.594-.66-.865a56.637,56.637,0,0,1,.748-8.121,54.254,54.254,0,0,1,10.862-23.048,26.916,26.916,0,0,1,4.284-4.2c5.07-3.959,10.631-4.189,16.232-1.4,4.089,2.034,5.9,5.753,5.818,10.219a11.4,11.4,0,0,1-6.208,10.478,8.224,8.224,0,0,1-11.349-4.795,5.192,5.192,0,0,1,4.479-6.809c.291-.029.614.246.921.38a3.412,3.412,0,0,1-.638.641,4.359,4.359,0,0,1-.856.241,4.087,4.087,0,0,0-2.472,6.14,7.1,7.1,0,0,0,10.712,2.432,11.316,11.316,0,0,0,3.95-11.8,10.686,10.686,0,0,0-9.17-7.638,14.242,14.242,0,0,0-12.568,4.31,44.215,44.215,0,0,0-8.894,13.194A48.962,48.962,0,0,0,253.033,145.795Z" transform="translate(-53.672 491.559)" fill="#ffcf64"/>
    <path id="Path_6" data-name="Path 6" d="M279.2,64.689a8.383,8.383,0,0,1,6.523,3.476,19.687,19.687,0,0,1,2.642,5.466,6.024,6.024,0,0,1-1.661,6.692,7,7,0,0,1-7.079,1.327,5.531,5.531,0,0,1-4.213-4.052,4.181,4.181,0,0,1,2.06-4.681A3.8,3.8,0,0,1,282,74.3c.221.28.163.782.234,1.181a3.438,3.438,0,0,1-1.03-.464c-1.543-1.473-2.682-1.717-3.787-.74a3.391,3.391,0,0,0-.167,4.639,6.648,6.648,0,0,0,7.419,1.447c2.309-1.1,3.291-3.306,2.73-6.124-.921-4.63-3.737-7.69-7.713-8.382a8.035,8.035,0,0,0-5.923,1.517,21.808,21.808,0,0,0-5.959,6.271c-4.006,5.918-6.67,12.47-8.936,19.2a116.7,116.7,0,0,0-4.683,18.457c-.059.366-.457.677-.7,1.012-.136-.349-.439-.727-.383-1.044,2.236-12.729,5.812-25.022,12.5-36.193a42.386,42.386,0,0,1,5.919-7.331A9.932,9.932,0,0,1,279.2,64.689Z" transform="translate(-53.657 490.912)" fill="#ffcf64"/>
    <path id="Path_7" data-name="Path 7" d="M247.676,122.978a49.442,49.442,0,0,1-4.052,18.249c-.136.334-.609.53-.925.789a3.3,3.3,0,0,1-.043-1.253c2.452-6.158,4.1-12.477,3.934-19.168-.239-9.552-7.175-19.48-16.075-22.975a13.43,13.43,0,0,0-2.95-.814c-4.878-.708-8.219,2.245-8.987,7.875A7.43,7.43,0,0,0,227.914,114a4.364,4.364,0,0,0,3.578-4.748,1.961,1.961,0,0,1-.029-.633,4.542,4.542,0,0,1,.436-.782c.2.228.516.427.583.69a5.337,5.337,0,0,1-3.779,6.394c-5.038,1.56-12.288-1.679-11.211-9.518.035-.253.1-.5.147-.754,1.35-6.832,6.272-9.61,12.842-7.249,9.689,3.483,17.1,14.17,17.2,24.812C247.678,122.466,247.676,122.722,247.676,122.978Z" transform="translate(-54.176 491.375)" fill="#ffcf64"/>
    <path id="Path_8" data-name="Path 8" d="M251.5,109.158a151.859,151.859,0,0,1-4.3,33.167c-.078.343-.518.6-.789.9a3.191,3.191,0,0,1-.226-1.1c1.067-6.129,2.373-12.224,3.214-18.382a96.068,96.068,0,0,0-.66-32.468c-.739-3.6-2.277-7.042-3.435-10.56-.372-1.133-.732-2.273-1.025-3.428-.061-.239.207-.562.323-.846.242.185.629.324.707.562,1.588,4.855,3.6,9.633,4.58,14.612,1.135,5.742,1.362,11.664,1.982,17.508Z" transform="translate(-53.785 491.083)" fill="#ffcf64"/>
    <path id="Path_9" data-name="Path 9" d="M262.906,66.522a51.863,51.863,0,0,1-2.89,12.42c-1.76,4.893-3.742,9.706-5.662,14.54-.126.316-.548.513-.832.766-.058-.4-.277-.863-.151-1.194,1.95-5.142,4.084-10.217,5.876-15.413a72.2,72.2,0,0,0,2.348-9.552,9.166,9.166,0,0,0-.8-6.476c-.973-1.711-2.315-2.47-3.83-2.188a4.6,4.6,0,0,0-3.469,3.694,4.688,4.688,0,0,0,2.184,4.331,1.706,1.706,0,0,0,2.386-.482c.6-.878,0-1.481-.612-2.088a4.9,4.9,0,0,1-.655-1.132,3.864,3.864,0,0,1,1.332.3,2.545,2.545,0,0,1,1,3.345,2.826,2.826,0,0,1-3.414,1.267,5.4,5.4,0,0,1,.4-10.164,4.493,4.493,0,0,1,5.248,1.918C262.367,61.8,262.9,63.684,262.906,66.522Z" transform="translate(-53.668 490.819)" fill="#ffcf64"/>
    <path id="Path_10" data-name="Path 10" d="M284.367,98.522a16.591,16.591,0,0,0-7.161,2.533c-5.761,3.349-10.109,8.188-14.034,13.456-.84,1.127-1.591,2.322-2.429,3.451-.159.215-.535.27-.811.4-.035-.33-.225-.763-.083-.974,5.041-7.5,10.657-14.434,19.069-18.441a12.82,12.82,0,0,1,7.686-1.4,5.62,5.62,0,0,1,4.825,4.485,4.5,4.5,0,0,1-2.079,4.731,3.87,3.87,0,0,1-4.553-.044,2.565,2.565,0,0,1-1.054-3.128,2.935,2.935,0,0,1,3.325-1.28c.266.089.457.4.682.614-.29.152-.577.429-.869.434-1.565.028-2.295.413-2.232,1.268a2.442,2.442,0,0,0,2.53,1.723,3.375,3.375,0,0,0,2.9-2.03,3.639,3.639,0,0,0-.529-3.856C288.57,99.138,286.97,98.485,284.367,98.522Z" transform="translate(-53.56 491.387)" fill="#ffcf64"/>
    <path id="Path_11" data-name="Path 11" d="M247.585,105.2a6.654,6.654,0,0,1-.025,1.4c-.069.307-.376.563-.577.841-.175-.3-.476-.584-.5-.9a56.735,56.735,0,0,0-.63-7.12c-1.043-4.647-2.275-9.265-3.707-13.807a12.7,12.7,0,0,0-4.864-6.439,3.245,3.245,0,0,0-3.821-.371,2.433,2.433,0,0,0-.864,3.529c.813,1.327,1.948,1.358,2.806.072a3.38,3.38,0,0,1,.392-.652c.162-.147.558-.305.624-.237.17.174.366.6.283.7a8.457,8.457,0,0,1-2.038,2.132c-.879.489-1.814-.057-2.513-.778a3.717,3.717,0,0,1-.583-4.482A4.022,4.022,0,0,1,236.29,77.5a6.956,6.956,0,0,1,2.774,1.742,22.521,22.521,0,0,1,3.885,5.483A59.83,59.83,0,0,1,247.585,105.2Z" transform="translate(-53.977 491.095)" fill="#ffcf64"/>
    <path id="Path_12" data-name="Path 12" d="M252.757,123.251a89.67,89.67,0,0,1,5.556-17.518c2.538-5.776,5.561-11.269,10.068-15.763a53.65,53.65,0,0,1,5.59-4.443c.223-.169.671-.042,1.015-.053-.156.332-.221.815-.482.971-4.828,2.89-8.244,7.109-11.1,11.826a80.695,80.695,0,0,0-9.385,24.365,1.864,1.864,0,0,1-.133.62,4.713,4.713,0,0,1-.648.648Z" transform="translate(-53.662 491.213)" fill="#ffcf64"/>
    <path id="Path_13" data-name="Path 13" d="M194.883,198.732a23.231,23.231,0,0,1,1.683-8.619c3.531-9.38,7.109-18.741,10.617-28.129.429-1.149.98-1.355,2.112-1.069q14.331,3.625,28.685,7.148c1.052.259,1.473.63,1.308,1.835-1.223,8.963-2.372,17.936-3.53,26.907-.273,2.114-.335,4.268-.758,6.35a17.379,17.379,0,0,1-8.375,11.6,58.057,58.057,0,0,1-13.019,5.905,6.749,6.749,0,0,1-7.282-1.674,57.488,57.488,0,0,1-9.157-11.318A16.111,16.111,0,0,1,194.883,198.732Zm14.036-36.015c-.21.513-.395.936-.558,1.369q-1.692,4.489-3.377,8.98c-2.454,6.549-5.026,13.056-7.318,19.66-1.644,4.738-1.551,9.557,1.073,13.979a51.762,51.762,0,0,0,8.909,11.01,4.958,4.958,0,0,0,5.383,1.222,55,55,0,0,0,12.878-5.893,16.15,16.15,0,0,0,7.68-12.248c1.208-9.991,2.475-19.975,3.713-29.962.04-.321.032-.647.051-1.042Z" transform="translate(-54.502 492.307)"/>
    <path id="Path_14" data-name="Path 14" d="M292.986,208.487a17.12,17.12,0,0,1-3.241,10.624c-2.46,3.213-5.08,6.307-7.717,9.377a6.746,6.746,0,0,1-8.42,2,124.362,124.362,0,0,1-12.178-5.6c-5.831-3.326-8.587-8.66-9.184-15.367-.651-7.305-1.718-14.576-2.628-21.857-.329-2.625-.714-5.242-1.109-7.857a1.244,1.244,0,0,1,1.094-1.645q14.661-3.617,29.3-7.308c1.114-.281,1.418.355,1.728,1.178,3.091,8.226,6.262,16.421,9.263,24.679,1.173,3.23,1.995,6.588,2.921,9.9A8.794,8.794,0,0,1,292.986,208.487Zm-14.045-35.708c-.447.1-.7.144-.942.2-8.694,2.161-17.381,4.356-26.091,6.45-1.34.323-1.5.857-1.335,2.1,1.232,9.435,2.453,18.873,3.527,28.327.541,4.757,2.168,8.906,6.01,11.871a45.664,45.664,0,0,0,15.609,7.457,4.034,4.034,0,0,0,4.368-1.425c2.837-3.233,5.649-6.5,8.269-9.9a14.68,14.68,0,0,0,2.155-4.6c1.322-4.275.536-8.453-.994-12.526-2.429-6.471-4.9-12.927-7.349-19.39C281.1,178.517,280.037,175.687,278.941,172.779Z" transform="translate(-53.724 492.452)"/>
    <path id="Path_155" data-name="Path 155" d="M207.132,290.993a27.282,27.282,0,0,0-5.88-2.389c-3.94-1.246-4.534-2.026-3.566-5.995q4.276-17.529,8.663-35.031c1.369-5.506,2.766-11,4.152-16.505a10.094,10.094,0,0,1,5.951-7.087c1.946-.863,3.943-1.613,5.924-2.4a48.241,48.241,0,0,0,6.045-2.41c6.592-3.72,9.937-9.781,11.047-16.989,1.429-9.275,2.427-18.616,3.613-27.93.248-1.942.509-3.884.764-5.824l.257.025.432,3.418c1.417,11.218,2.8,22.44,4.273,33.65a67.919,67.919,0,0,0,1.843,10.562c2.259,7.577,6.981,12.975,14.842,15.25,2,.579,3.921,1.439,5.878,2.172a11.822,11.822,0,0,1,7.712,8.973c3.4,14.054,6.949,28.071,10.435,42.1.741,2.98,1.511,5.953,2.163,8.953.659,3.029.04,4.029-2.885,4.967-1.217.391-2.479.653-3.682,1.08a9.463,9.463,0,0,0-4.967,3.432,6.085,6.085,0,0,0-.748,4.907h2.187l33.431-8.325a5.66,5.66,0,0,0-4.374-4.913,14.359,14.359,0,0,0-7.335.259c-4.224.985-5.059.543-6.1-3.6-4.208-16.8-8.355-33.611-12.565-50.408a11.008,11.008,0,0,1,2.274-10.426q2.993-3.5,6.136-6.876a18.5,18.5,0,0,0,4.632-8.566,25.856,25.856,0,0,0-1.354-15.2q-6.8-17.949-13.582-35.9c-1.324-3.5-2.658-7-4.028-10.6l-34.059,8.46,1.218-9.843-35.367-8.8c-.212.513-.4.935-.563,1.367C205.09,157.4,200.189,170.231,195.4,183.1a85.124,85.124,0,0,0-4.043,12.5,19.553,19.553,0,0,0,5.561,18.678c1.959,1.955,3.728,4.106,5.506,6.233a10.878,10.878,0,0,1,2.127,10.213c-3.79,15.1-7.512,30.215-11.275,45.321-.587,2.358-1.177,4.72-1.916,7.031-.582,1.818-1.407,2.276-3.305,2.069-1.1-.12-2.176-.413-3.263-.631a11.86,11.86,0,0,0-6.813.19,5.957,5.957,0,0,0-3.937,4.676l35.456,8.819A5.5,5.5,0,0,0,207.132,290.993Zm70.479-135.536c.907,2.374,1.791,4.672,2.662,6.975q7.27,19.2,14.53,38.409a24.248,24.248,0,0,1,1.424,12.572,17.079,17.079,0,0,1-4.576,9.121c-2.066,2.215-4.093,4.469-6.052,6.778a12.731,12.731,0,0,0-2.68,11.978c4.214,16.839,8.362,33.7,12.6,50.529,1.291,5.135,2.961,6.006,8.18,4.89a25.937,25.937,0,0,1,5.185-.539,4.772,4.772,0,0,1,3.964,2.158l-31.825,7.918a3.627,3.627,0,0,1,1.816-3.447,31.053,31.053,0,0,1,4.391-2c1.185-.47,2.456-.725,3.632-1.212a4.094,4.094,0,0,0,2.747-4.565,48.179,48.179,0,0,0-1.082-5.643c-3.9-15.774-7.893-31.526-11.721-47.317-1.208-4.987-3.975-8.39-8.751-10.186-2.075-.78-4.121-1.66-6.242-2.288-6.235-1.849-10.251-6-12.756-11.855-1.435-3.351-1.828-6.9-2.276-10.461q-2.378-18.919-4.784-37.836c-.245-1.937-.464-3.877-.709-5.935Zm-101.19,132.7a4.685,4.685,0,0,1,4.216-2.214,23.549,23.549,0,0,1,4.93.585c5.067,1.126,6.836.176,8.095-4.839,4.234-16.879,8.394-33.774,12.613-50.656a12.508,12.508,0,0,0-2.485-11.657,69.52,69.52,0,0,0-5.148-5.864c-6-5.759-7.233-12.728-4.983-20.348,1.553-5.262,3.718-10.347,5.656-15.494q5.839-15.505,11.729-30.991c.164-.434.341-.864.555-1.406l32.331,8.044c-.306,2.5-.6,4.941-.906,7.379-1.583,12.53-3.216,25.055-4.729,37.594-.559,4.634-1.566,9.073-4.129,13.048a18.349,18.349,0,0,1-9.984,7.784c-2.55.835-5.056,1.814-7.551,2.805a12.824,12.824,0,0,0-8.1,9.52c-2.4,9.948-4.931,19.867-7.4,29.8-1.668,6.7-3.343,13.407-4.979,20.118a21.387,21.387,0,0,0-.59,3.656,4.032,4.032,0,0,0,2.495,4.229c1.161.519,2.422.809,3.606,1.28a38.869,38.869,0,0,1,4.653,2.036,4.021,4.021,0,0,1,1.956,3.509Z" transform="translate(-54.805 492.052)"/>
  </g>
</svg>
