<svg id="Google_Play-Badge-Logo.wine" xmlns="http://www.w3.org/2000/svg" xmlns:xlink="http://www.w3.org/1999/xlink" width="190.852" height="56.64" viewBox="0 0 190.852 56.64">
  <defs>
    <linearGradient id="linear-gradient" x1="0.849" y1="0.31" x2="0.361" y2="0.799" gradientUnits="objectBoundingBox">
      <stop offset="0" stop-color="#00a0ff"/>
      <stop offset="0.007" stop-color="#00a1ff"/>
      <stop offset="0.26" stop-color="#00beff"/>
      <stop offset="0.512" stop-color="#00d2ff"/>
      <stop offset="0.76" stop-color="#00dfff"/>
      <stop offset="1" stop-color="#00e3ff"/>
    </linearGradient>
    <linearGradient id="linear-gradient-2" x1="0.97" y1="0.436" x2="-1.177" y2="0.436" gradientUnits="objectBoundingBox">
      <stop offset="0" stop-color="#ffe000"/>
      <stop offset="0.409" stop-color="#ffbd00"/>
      <stop offset="0.775" stop-color="orange"/>
      <stop offset="1" stop-color="#ff9c00"/>
    </linearGradient>
    <linearGradient id="linear-gradient-3" x1="0.761" y1="0.213" x2="-0.443" y2="1.411" gradientUnits="objectBoundingBox">
      <stop offset="0" stop-color="#ff3a44"/>
      <stop offset="1" stop-color="#c31162"/>
    </linearGradient>
    <linearGradient id="linear-gradient-4" x1="-0.17" y1="-0.275" x2="0.367" y2="0.26" gradientUnits="objectBoundingBox">
      <stop offset="0" stop-color="#32a071"/>
      <stop offset="0.068" stop-color="#2da771"/>
      <stop offset="0.476" stop-color="#15cf74"/>
      <stop offset="0.801" stop-color="#06e775"/>
      <stop offset="1" stop-color="#00f076"/>
    </linearGradient>
    <linearGradient id="linear-gradient-5" x1="0.624" y1="0.038" x2="-0.364" y2="1.027" gradientUnits="objectBoundingBox">
      <stop offset="0" stop-color="#cc2e36"/>
      <stop offset="1" stop-color="#9c0e4e"/>
    </linearGradient>
    <linearGradient id="linear-gradient-6" x1="5.233" y1="-7.998" x2="-1.121" y2="-1.634" gradientUnits="objectBoundingBox">
      <stop offset="0" stop-color="#008de0"/>
      <stop offset="0.007" stop-color="#008de0"/>
      <stop offset="0.26" stop-color="#00a7e0"/>
      <stop offset="0.512" stop-color="#00b8e0"/>
      <stop offset="0.76" stop-color="#00c4e0"/>
      <stop offset="1" stop-color="#00c7e0"/>
    </linearGradient>
    <linearGradient id="linear-gradient-7" x1="0.943" y1="-0.195" x2="-2.414" y2="-0.195" gradientUnits="objectBoundingBox">
      <stop offset="0" stop-color="#e0c500"/>
      <stop offset="0.409" stop-color="#e0a600"/>
      <stop offset="0.775" stop-color="#e09100"/>
      <stop offset="1" stop-color="#e08900"/>
    </linearGradient>
    <linearGradient id="linear-gradient-8" x1="0.944" y1="0.999" x2="-2.414" y2="0.999" gradientUnits="objectBoundingBox">
      <stop offset="0" stop-color="#ffe840"/>
      <stop offset="0.409" stop-color="#ffce40"/>
      <stop offset="0.775" stop-color="#ffbc40"/>
      <stop offset="1" stop-color="#ffb540"/>
    </linearGradient>
    <linearGradient id="linear-gradient-9" x1="5.219" y1="0.865" x2="-1.113" y2="6.933" gradientUnits="objectBoundingBox">
      <stop offset="0" stop-color="#40b8ff"/>
      <stop offset="0.007" stop-color="#40b9ff"/>
      <stop offset="0.26" stop-color="#40ceff"/>
      <stop offset="0.512" stop-color="#40ddff"/>
      <stop offset="0.76" stop-color="#40e7ff"/>
      <stop offset="1" stop-color="#40eaff"/>
    </linearGradient>
    <linearGradient id="linear-gradient-10" x1="-0.137" y1="-0.184" x2="0.304" y2="0.257" gradientUnits="objectBoundingBox">
      <stop offset="0" stop-color="#65b895"/>
      <stop offset="0.068" stop-color="#62bd95"/>
      <stop offset="0.476" stop-color="#50db97"/>
      <stop offset="0.801" stop-color="#44ed98"/>
      <stop offset="1" stop-color="#40f498"/>
    </linearGradient>
  </defs>
  <path id="Path_239" data-name="Path 239" d="M183.783,56.64H7.069A7.1,7.1,0,0,1,0,49.56V7.08A7.1,7.1,0,0,1,7.069,0H183.783a7.1,7.1,0,0,1,7.069,7.08V49.56a7.1,7.1,0,0,1-7.069,7.08" transform="translate(0 0)"/>
  <path id="Path_240" data-name="Path 240" d="M183.783,0H7.069A7.1,7.1,0,0,0,0,7.08V49.56a7.1,7.1,0,0,0,7.069,7.08H183.783a7.1,7.1,0,0,0,7.069-7.08V7.08A7.1,7.1,0,0,0,183.783,0m0,1.133a5.949,5.949,0,0,1,5.938,5.947V49.56a5.949,5.949,0,0,1-5.938,5.948H7.069A5.95,5.95,0,0,1,1.131,49.56V7.08A5.95,5.95,0,0,1,7.069,1.133H183.783" transform="translate(0 0)" fill="#a6a6a6"/>
  <path id="Path_241" data-name="Path 241" d="M927.2,157.547a3.838,3.838,0,0,1-1.053,2.836,4.11,4.11,0,0,1-3.116,1.257,4.438,4.438,0,1,1,0-8.876,4.368,4.368,0,0,1,1.741.356,3.5,3.5,0,0,1,1.326.949l-.745.747a2.862,2.862,0,0,0-2.322-1.008,3.393,3.393,0,1,0,2.369,5.838,2.674,2.674,0,0,0,.711-1.721h-3.08v-1.021h4.11a3.64,3.64,0,0,1,.059.641" transform="translate(-860.165 -143.042)" fill="#fff"/>
  <path id="Path_242" data-name="Path 242" d="M925.122,155.464h-.142a3.7,3.7,0,0,1-1.012,2.736h0a3.969,3.969,0,0,1-3.014,1.214,4.3,4.3,0,1,1,0-8.593,4.23,4.23,0,0,1,1.685.345,3.361,3.361,0,0,1,1.274.911l.108-.091-.1-.1-.746.748.1.1.109-.091a3.007,3.007,0,0,0-2.431-1.059,3.535,3.535,0,1,0,2.469,6.08,2.819,2.819,0,0,0,.752-1.809l.013-.154h-3.093v-.737h3.969v-.142l-.139.025a3.448,3.448,0,0,1,.057.616h.283a3.747,3.747,0,0,0-.062-.666l-.021-.116h-4.37v1.3h3.222v-.142l-.141-.012a2.538,2.538,0,0,1-.67,1.633,3.233,3.233,0,0,1-4.488,0,3.42,3.42,0,0,1,0-4.7,3.077,3.077,0,0,1,2.218-.9,2.72,2.72,0,0,1,2.214.958l.1.118.854-.857.092-.092-.083-.1a3.633,3.633,0,0,0-1.379-.988,4.51,4.51,0,0,0-1.8-.368,4.58,4.58,0,1,0,0,9.159,4.255,4.255,0,0,0,3.219-1.3l-.1-.1.1.1a3.981,3.981,0,0,0,1.095-2.936h-.141m6.516-3.549h-3.863v2.694h3.484v1.021h-3.484v2.694h3.863v1.044h-4.952v-8.5h4.952v1.044" transform="translate(-858.086 -140.959)" fill="#fff"/>
  <path id="Path_243" data-name="Path 243" d="M1080.84,154.715v-.142h-4v2.977h3.484v.737h-3.484v2.977h3.863v.761h-4.669v-8.213h4.669v.9h.141v0h.142V153.53h-5.235v8.779h5.235v-1.327h-3.863v-2.411h3.484v-1.3h-3.484v-2.411h3.863v-.142h-.142m4.6,7.452h-1.091v-7.452h-2.369v-1.044h5.829v1.044h-2.369v7.452" transform="translate(-1007.288 -143.76)" fill="#fff"/>
  <path id="Path_244" data-name="Path 244" d="M1175.024,162.168v-.142h-.949v-7.452h-2.369v-.76h5.546v.76h-2.369v7.594h.141v0h.141v-7.311h2.369V153.53h-6.111v1.327h2.369v7.452h1.373v-.142h-.141m6.586,0v-8.5h1.089v8.5h-1.089" transform="translate(-1096.875 -143.76)" fill="#fff"/>
  <path id="Path_245" data-name="Path 245" d="M1329.43,162.168h.142v-8.354h.806v8.213h-.948v.142h0v.142h1.231V153.53h-1.372v8.779h.141v-.142m5.924,0h-1.091v-7.452h-2.369v-1.044h5.829v1.044h-2.369v7.452" transform="translate(-1244.695 -143.76)" fill="#fff"/>
  <path id="Path_246" data-name="Path 246" d="M1371.616,161.45v-.142h-.949v-7.452H1368.3v-.76h5.546v.76h-2.369v7.594h.142v0h.141V154.14h2.369v-1.327h-6.111v1.327h2.369v7.452h1.373v-.142h-.141m7.988-1.809a3.258,3.258,0,0,0,4.609,0,3.624,3.624,0,0,0,0-4.878,3.258,3.258,0,0,0-4.609,0,3.63,3.63,0,0,0,0,4.878Zm5.415.711a4.4,4.4,0,0,1-6.219,0,4.595,4.595,0,0,1,0-6.3,4.384,4.384,0,0,1,6.214.006,4.581,4.581,0,0,1,.006,6.295Z" transform="translate(-1280.956 -143.042)" fill="#fff"/>
  <path id="Path_247" data-name="Path 247" d="M1517.823,157.558l-.1.1a3.4,3.4,0,0,0,4.809,0,3.766,3.766,0,0,0,0-5.077,3.4,3.4,0,0,0-4.809,0,3.771,3.771,0,0,0,0,5.077l.1-.1.1-.1a3.488,3.488,0,0,1,0-4.678,3.118,3.118,0,0,1,4.408,0,3.485,3.485,0,0,1,0,4.678,3.118,3.118,0,0,1-4.408,0Zm5.415.711-.1-.1a4.259,4.259,0,0,1-6.017,0l0,0,0,0a4.455,4.455,0,0,1,0-6.1,4.244,4.244,0,0,1,6.012.006,4.44,4.44,0,0,1,.006,6.1l.1.1.1.1a4.721,4.721,0,0,0-.006-6.491,4.524,4.524,0,0,0-6.417-.006h0a4.738,4.738,0,0,0,0,6.5l0,0,0,0a4.54,4.54,0,0,0,6.423,0Zm2.779,1.1v-8.5h1.327l4.122,6.609h.047l-.047-1.637v-4.972h1.091v8.5h-1.138l-4.313-6.93h-.047l.047,1.638v5.292h-1.089" transform="translate(-1419.176 -140.959)" fill="#fff"/>
  <path id="Path_248" data-name="Path 248" d="M960.557,162.168h.141v-8.354h1.107l4.122,6.609h.271l-.051-1.781v-4.828h.808v8.213h-.918l-4.313-6.93h-.27l.051,1.782v5.148h-.947v.142h0v.142h1.23v-5.436l-.047-1.639-.142,0v.142h.047v-.142l-.12.075,4.355,7h1.357V153.53h-1.373v5.115l.047,1.639.141,0v-.142h-.047v.142l.12-.075-4.164-6.676h-1.546v8.779h.141v-.142m44.335,24.072h2.638v-17.7h-2.638Zm23.76-11.325-3.024,7.675h-.09l-3.138-7.675h-2.842l4.706,10.727-2.683,5.967h2.753l7.252-16.693Zm-14.96,9.315c-.865,0-2.07-.433-2.07-1.5,0-1.366,1.5-1.89,2.8-1.89a4.688,4.688,0,0,1,2.41.592A3.2,3.2,0,0,1,1013.692,184.229Zm.318-9.7a4.951,4.951,0,0,0-4.706,2.71l2.341.979a2.5,2.5,0,0,1,2.41-1.3,2.541,2.541,0,0,1,2.774,2.278v.182a5.825,5.825,0,0,0-2.751-.683c-2.523,0-5.094,1.389-5.094,3.985,0,2.369,2.07,3.895,4.388,3.895a3.722,3.722,0,0,0,3.366-1.731h.091v1.366h2.546v-6.787C1019.375,176.281,1017.034,174.527,1014.011,174.527Zm-16.3,2.542h-3.752V171h3.752a3.034,3.034,0,1,1,0,6.068Zm-.068-8.531h-6.321v17.7h2.637v-6.707h3.684a5.505,5.505,0,1,0,0-11Zm-34.468,15.694a3.664,3.664,0,0,1,0-7.3,3.68,3.68,0,0,1,0,7.3Zm3.029-8.327h-.091a4.165,4.165,0,0,0-3.166-1.346,6.028,6.028,0,0,0,0,12.045,4.1,4.1,0,0,0,3.166-1.369h.091v.867c0,2.3-1.23,3.536-3.211,3.536a3.329,3.329,0,0,1-3.03-2.145l-2.3.958a5.731,5.731,0,0,0,5.329,3.559c3.1,0,5.717-1.825,5.717-6.274V174.925H966.2Zm4.327,10.334h2.642v-17.7h-2.642Zm6.537-5.84a3.3,3.3,0,0,1,3.143-3.513,2.325,2.325,0,0,1,2.232,1.278Zm8.2-2.007a5.589,5.589,0,0,0-5.148-3.833,5.719,5.719,0,0,0-5.671,6.022,5.889,5.889,0,0,0,5.967,6.022,5.98,5.98,0,0,0,5.011-2.669l-2.05-1.369a3.432,3.432,0,0,1-2.961,1.666,3.059,3.059,0,0,1-2.915-1.825l8.04-3.331Zm-64.053-1.985v2.555h6.1a5.336,5.336,0,0,1-1.39,3.216,6.241,6.241,0,0,1-4.714,1.871,6.8,6.8,0,0,1,0-13.6,6.5,6.5,0,0,1,4.6,1.825l1.8-1.8a8.889,8.889,0,0,0-6.4-2.578,9.354,9.354,0,1,0,0,18.706,8.271,8.271,0,0,0,8.723-8.6,8.313,8.313,0,0,0-.137-1.6Zm15.662,7.825a3.66,3.66,0,1,1,3.393-3.65A3.482,3.482,0,0,1,936.874,184.232Zm0-9.672a6.022,6.022,0,1,0,6.035,6.022A5.931,5.931,0,0,0,936.874,174.56Zm13.166,9.672a3.66,3.66,0,1,1,3.393-3.65A3.482,3.482,0,0,1,950.04,184.232Zm0-9.672a6.022,6.022,0,1,0,6.035,6.022A5.931,5.931,0,0,0,950.04,174.56Z" transform="translate(-853.715 -143.76)" fill="#fff"/>
  <path id="Path_249" data-name="Path 249" d="M222.3,162.594a2.737,2.737,0,0,0-.758,2.093v30.9a2.838,2.838,0,0,0,.654,1.99l.1.1h0a1.815,1.815,0,0,0,1.249.46,3.252,3.252,0,0,0,1.584-.475l20.52-11.678,7.049-4.012a2.639,2.639,0,0,0,1.482-1.836v0A2.638,2.638,0,0,0,252.7,178.3l-7.049-4.011-20.52-11.678a3.258,3.258,0,0,0-1.587-.476,1.818,1.818,0,0,0-1.248.46Z" transform="translate(-207.442 -151.816)" fill="#00c1ff"/>
  <path id="Path_250" data-name="Path 250" d="M.874-516.48l-.105-.1a2.838,2.838,0,0,1-.654-1.99v-30.9a2.737,2.737,0,0,1,.758-2.093l17.516,17.544L.874-516.48" transform="translate(13.984 562.344)" fill="url(#linear-gradient)"/>
  <path id="Path_251" data-name="Path 251" d="M6.525-172.868l-5.839-5.85,5.839-5.849,7.049,4.011a2.638,2.638,0,0,1,1.482,1.837v0a2.639,2.639,0,0,1-1.482,1.836l-7.049,4.012" transform="translate(31.686 207.039)" fill="url(#linear-gradient-2)"/>
  <path id="Path_252" data-name="Path 252" d="M1.689-265.014a1.817,1.817,0,0,1-1.249-.46h0l17.514-17.542,5.839,5.85L3.273-265.489a3.252,3.252,0,0,1-1.584.475" transform="translate(14.418 311.338)" fill="url(#linear-gradient-3)"/>
  <path id="Path_253" data-name="Path 253" d="M17.706-265.6.19-283.145a1.818,1.818,0,0,1,1.248-.46,3.256,3.256,0,0,1,1.587.476l20.52,11.678L17.706-265.6" transform="translate(14.666 293.923)" fill="url(#linear-gradient-4)"/>
  <path id="Path_254" data-name="Path 254" d="M2.145-182.733a1.82,1.82,0,0,1-1.25-.461h0l0,0L.8-183.286.79-183.3.9-183.4a1.815,1.815,0,0,0,1.249.46,3.252,3.252,0,0,0,1.584-.475l20.52-11.678.131.132-.133.076L3.728-183.209a3.376,3.376,0,0,1-1.454.472q-.065,0-.129,0" transform="translate(13.963 229.265)" fill="url(#linear-gradient-5)"/>
  <path id="Path_255" data-name="Path 255" d="M.769-33.109A2.837,2.837,0,0,1,.115-35.1v-.206a2.838,2.838,0,0,0,.654,1.99l.105.1-.105.106" transform="translate(13.984 79.078)" fill="url(#linear-gradient-6)"/>
  <path id="Path_256" data-name="Path 256" d="M.773-88.148l-.131-.132,7.049-4.012a2.639,2.639,0,0,0,1.482-1.836,1.756,1.756,0,0,1-.163.73,3.036,3.036,0,0,1-1.318,1.312L.773-88.148" transform="translate(37.569 122.45)" fill="url(#linear-gradient-7)"/>
  <path id="Path_257" data-name="Path 257" d="M9.164-88.7a2.638,2.638,0,0,0-1.482-1.837L.633-94.552l.131-.132h0l6.917,3.937A2.486,2.486,0,0,1,9.164-88.7" transform="translate(37.578 117.025)" fill="url(#linear-gradient-8)"/>
  <path id="Path_258" data-name="Path 258" d="M.115-32.561v-.216c0-.078,0-.154.006-.228v0a.01.01,0,0,1,0,0v-.008a2.7,2.7,0,0,1,.648-1.737l.1.1a2.738,2.738,0,0,0-.758,2.093" transform="translate(13.984 45.432)" fill="url(#linear-gradient-9)"/>
  <path id="Path_259" data-name="Path 259" d="M24.247-182.542,3.727-194.22A3.258,3.258,0,0,0,2.14-194.7a1.818,1.818,0,0,0-1.248.46l-.1-.1q.048-.051.1-.1l0,0a1.817,1.817,0,0,1,1.236-.46h.01a3.257,3.257,0,0,1,1.587.476l20.652,11.753h0l-.131.132" transform="translate(13.964 205.014)" fill="url(#linear-gradient-10)"/>
</svg>
