<svg id="iconfinder_Circled_Instagram_svg_5279112" xmlns="http://www.w3.org/2000/svg" width="40.174" height="40.174" viewBox="0 0 40.174 40.174">
  <path id="iconfinder_Circled_Instagram_svg_5279112-2" data-name="iconfinder_Circled_Instagram_svg_5279112" d="M20.087,0A20.087,20.087,0,1,1,0,20.087,20.1,20.1,0,0,1,20.087,0Zm0,7.533c-3.41,0-3.837.014-5.176.076a9.216,9.216,0,0,0-3.048.584,6.42,6.42,0,0,0-3.672,3.672,9.217,9.217,0,0,0-.584,3.047c-.061,1.339-.075,1.767-.075,5.176s.014,3.837.075,5.176a9.217,9.217,0,0,0,.584,3.047,6.42,6.42,0,0,0,3.672,3.672,9.218,9.218,0,0,0,3.048.583c1.339.061,1.767.076,5.176.076s3.837-.014,5.176-.076a9.217,9.217,0,0,0,3.047-.583,6.42,6.42,0,0,0,3.672-3.672,9.217,9.217,0,0,0,.583-3.047c.061-1.339.076-1.767.076-5.176s-.014-3.837-.076-5.176a9.217,9.217,0,0,0-.583-3.047,6.42,6.42,0,0,0-3.672-3.672,9.215,9.215,0,0,0-3.047-.584C23.924,7.547,23.5,7.533,20.087,7.533Zm0,2.262c3.352,0,3.749.013,5.073.073a6.947,6.947,0,0,1,2.331.432,4.158,4.158,0,0,1,2.383,2.383,6.945,6.945,0,0,1,.432,2.331c.06,1.324.073,1.721.073,5.073s-.013,3.749-.073,5.073a6.945,6.945,0,0,1-.432,2.331,4.158,4.158,0,0,1-2.383,2.383,6.945,6.945,0,0,1-2.331.432c-1.324.06-1.721.073-5.073.073s-3.749-.013-5.073-.073a6.945,6.945,0,0,1-2.331-.432A4.157,4.157,0,0,1,10.3,27.491a6.946,6.946,0,0,1-.432-2.331c-.06-1.324-.073-1.721-.073-5.073s.013-3.749.073-5.073a6.946,6.946,0,0,1,.432-2.331A4.157,4.157,0,0,1,12.683,10.3a6.947,6.947,0,0,1,2.331-.432C16.338,9.807,16.735,9.795,20.087,9.795Zm0,3.845a6.447,6.447,0,1,0,6.447,6.447,6.447,6.447,0,0,0-6.447-6.447Zm0,10.632a4.185,4.185,0,1,1,4.185-4.185A4.185,4.185,0,0,1,20.087,24.272ZM28.3,13.385a1.507,1.507,0,1,1-1.507-1.507A1.507,1.507,0,0,1,28.3,13.385Z" fill="#ffcf64" fill-rule="evenodd"/>
</svg>
