<svg xmlns="http://www.w3.org/2000/svg" width="31.684" height="34.357" viewBox="0 0 31.684 34.357">
  <g id="bulb-light-svgrepo-com" transform="translate(0.5 0.5)">
    <path id="Path_353" data-name="Path 353" d="M11.979,27.706a.616.616,0,0,1-.13-1.222,8.163,8.163,0,0,0-2.335-4.267A13.245,13.245,0,0,1,7.25,18.981a9.773,9.773,0,0,1-.977-4.243A9.964,9.964,0,0,1,7.467,10.2l.016-.03h0a8.611,8.611,0,0,1,4.2-3.67,9.3,9.3,0,0,1,4.371-.624,10.067,10.067,0,0,1,4.172,1.341,8.611,8.611,0,0,1,3.643,4.129,9.147,9.147,0,0,1,.69,3.209,9.28,9.28,0,0,1-.709,3.768,13.351,13.351,0,0,1-2.571,3.939,8.785,8.785,0,0,0-2.014,3.214.616.616,0,0,1-.057,1.211l-.209.03q-.057.444-.073.953l.068-.011a.617.617,0,1,1,.168,1.222l-.212.03.008.122h0a4.9,4.9,0,0,1,.008.69L19,29.717a.618.618,0,1,1,.152,1.227L18.7,31A3.7,3.7,0,0,1,17.1,32.885a3.468,3.468,0,0,1-1.523.464,3.158,3.158,0,0,1-1.569-.307,3.309,3.309,0,0,1-1.436-1.4.62.62,0,0,1-.334-.475.6.6,0,0,1,.019-.242,5.629,5.629,0,0,1-.236-1.04l-.019,0a.617.617,0,1,1-.168-1.222l.147-.022c.011-.331.008-.646-.005-.945ZM.591,15.978A.574.574,0,0,1,.556,14.83l2.362-.081A.574.574,0,1,1,2.953,15.9l-2.362.081Zm29.454-2.337a.574.574,0,0,1,.117,1.143l-2.351.247a.574.574,0,0,1-.117-1.143l2.351-.247ZM25.764,4.012a.573.573,0,0,1,.953.638L25.4,6.615a.573.573,0,0,1-.953-.638l1.314-1.965ZM15.644.559a.573.573,0,0,1,1.146.027l-.06,2.362a.573.573,0,0,1-1.146-.027l.06-2.362ZM3.767,4.215a.574.574,0,0,1,.782-.842L6.278,4.986a.574.574,0,0,1-.782.842L3.767,4.215ZM13,26.318l5.019-.714a9.185,9.185,0,0,1,2.389-4.094,12.392,12.392,0,0,0,2.378-3.621,8.172,8.172,0,0,0,.627-3.309,7.946,7.946,0,0,0-.608-2.807A7.463,7.463,0,0,0,19.64,8.2a8.838,8.838,0,0,0-3.689-1.186,8.178,8.178,0,0,0-3.836.548A7.472,7.472,0,0,0,8.48,10.747a8.823,8.823,0,0,0-1.059,4,8.609,8.609,0,0,0,.869,3.746,12.348,12.348,0,0,0,2.088,2.964A9.077,9.077,0,0,1,13,26.318Zm4.816.562-4.688.665c.014.3.019.611.014.942l4.629-.657c.005-.334.019-.652.046-.95Zm-4.65,2.85a4.472,4.472,0,0,0,.144.69l4.493-.554a3.547,3.547,0,0,0,.014-.744h0v-.005l0-.046-4.648.66Zm.782,1.857a1.973,1.973,0,0,0,.57.421,2.018,2.018,0,0,0,1,.2,2.306,2.306,0,0,0,1.015-.312,2.489,2.489,0,0,0,.782-.719l-3.364.415Z" transform="translate(0.001 0.001)" fill="#ffcf64" stroke="#ffcf64" stroke-width="1"/>
  </g>
</svg>
